Coordinates
version=1
nRows=17
nColumns=24
inDegrees=yes

Units are S.I. units (second, meters, Newtons, ...)
Angles are in degrees.

endheader
time	pelvis_tilt	pelvis_list	pelvis_rotation	pelvis_tx	pelvis_ty	pelvis_tz	hip_flexion_r	hip_adduction_r	hip_rotation_r	knee_angle_r	ankle_angle_r	subtalar_angle_r	mtp_angle_r	hip_flexion_l	hip_adduction_l	hip_rotation_l	knee_angle_l	ankle_angle_l	subtalar_angle_l	mtp_angle_l	lumbar_extension	lumbar_bending	lumbar_rotation
      3.74500000	    -20.26886141	     -3.77924712	      6.38539517	     -1.80060311	     -0.05261743	     -0.27351858	     51.54319876	      6.15057242	      3.63676799	    -30.30039626	     -9.46193795	    -12.69886952	     -0.94051928	      2.55615076	     -2.93456500	      4.77353183	    -28.84463322	    -18.37199412	     20.42175085	     30.10953783	     14.25883826	      0.78203299	    -10.22987958
      3.75000000	    -20.15920212	     -4.03087827	      6.11241277	     -1.79180163	     -0.05297502	     -0.27274880	     51.40910676	      6.83281502	      3.80737892	    -31.37558637	     -8.60933699	    -13.05345257	     -0.81151193	      3.02923884	     -3.42069719	      4.30216875	    -30.21976737	    -21.09033651	     20.69671034	     29.63916434	     14.23301370	      1.10035305	    -10.03011322
      3.75500000	    -20.10460681	     -4.17734790	      5.76807996	     -1.78314326	     -0.05333149	     -0.27189152	     51.29092427	      7.47549432	      4.04732591	    -32.43614488	     -7.42275470	    -13.04271635	     -1.65960817	      3.60486115	     -3.73538054	      3.96251446	    -31.70744955	    -23.61095741	     20.81195767	     27.48029679	     14.23728013	      1.32266983	     -9.66157681
      3.76000000	    -19.97857010	     -4.29169214	      5.38673599	     -1.77460557	     -0.05352397	     -0.27094689	     50.99669449	      8.12438556	      4.32765995	    -33.27688989	     -6.55588253	    -13.29704381	     -1.53345059	      4.14753902	     -4.00913788	      3.55750054	    -33.19104180	    -26.25307972	     20.44873545	     25.66515573	     14.14274631	      1.51783059	     -9.23679355
      3.76500000	    -19.94775104	     -4.53425709	      5.10875844	     -1.76615703	     -0.05379052	     -0.27026957	     50.74045395	      8.70436910	      4.31749894	    -33.96159364	     -5.58779598	    -13.25221791	     -0.99432090	      4.99416373	     -4.36554799	      3.33863469	    -35.10559383	    -27.89715702	     20.24833958	     20.48692249	     14.16979822	      1.82395342	     -8.99133803
      3.77000000	    -19.85401187	     -4.76696731	      4.83114817	     -1.75780611	     -0.05383048	     -0.26953583	     50.32546913	      9.27500207	      4.29248562	    -34.44548495	     -4.88465941	    -13.44224597	     -0.04386117	      5.82306759	     -4.69131548	      3.15379039	    -37.01806886	    -29.46708113	     19.59782985	     15.41366751	     14.12023872	      2.11595039	     -8.66526344
      3.77500000	    -19.80058284	     -4.97613890	      4.55100974	     -1.74962520	     -0.05388082	     -0.26875008	     49.90522339	      9.79453878	      4.25667435	    -34.81852693	     -4.20852324	    -13.51462205	      1.30111905	      6.78643155	     -4.99049208	      2.89682115	    -39.04365418	    -30.67755463	     18.63474278	     10.04463621	     14.09620497	      2.36726741	     -8.34524522
      3.78000000	    -19.74391477	     -5.19310145	      4.28428599	     -1.74158128	     -0.05384731	     -0.26794915	     49.41853614	     10.28715018	      4.20350851	    -35.04927089	     -3.59098437	    -13.55460420	      2.94040097	      7.81734066	     -5.29175186	      2.63266584	    -41.13463697	    -31.51105710	     17.37372368	      4.58417514	     14.05339231	      2.61758871	     -8.05097430
      3.78500000	    -19.71525099	     -5.42595401	      4.02662528	     -1.73361381	     -0.05378055	     -0.26714549	     48.92672627	     10.74949995	      4.07525837	    -35.19528172	     -3.00400641	    -13.50542276	      4.77423574	      8.92616514	     -5.59680693	      2.37924690	    -43.24578919	    -32.03513316	     15.79980414	     -0.51394208	     14.04029516	      2.87374503	     -7.73658485
      3.79000000	    -19.68122756	     -5.67191492	      3.79144728	     -1.72571125	     -0.05358942	     -0.26637647	     48.37338387	     11.17693284	      3.89656667	    -35.22146825	     -2.44424035	    -13.37869818	      6.71580802	     10.05398209	     -5.88888172	      2.19617189	    -45.33386149	    -32.23691913	     13.99712936	     -4.99497273	     14.03222370	      3.13648280	     -7.41821472
      3.79500000	    -19.68032967	     -5.90619819	      3.58209322	     -1.71792411	     -0.05332798	     -0.26565811	     47.82087989	     11.54648413	      3.68975073	    -35.17566463	     -1.85892084	    -13.13366289	      8.64601788	     11.24908201	     -6.13616399	      2.06780785	    -47.39121525	    -32.22821526	     11.96845726	     -8.69231483	     14.04601699	      3.37534303	     -7.12129183
      3.80000000	    -19.67780501	     -6.13842766	      3.40405678	     -1.71020121	     -0.05294923	     -0.26497870	     47.22931936	     11.87643861	      3.45402495	    -35.06030904	     -1.25924389	    -12.81435446	     10.47340985	     12.46063801	     -6.34851945	      2.02030705	    -49.39991026	    -31.98344294	      9.83841776	    -11.65427750	     14.06007599	      3.60110728	     -6.84284023
      3.80500000	    -19.60580773	     -6.35906647	      3.30679245	     -1.70252748	     -0.05234659	     -0.26439255	     46.54275730	     12.14034392	      3.15055548	    -34.96309697	     -0.36995751	    -12.18840442	     11.12724408	     13.58772944	     -6.50798743	      2.07433130	    -51.22931964	    -32.02180038	      7.43318215	    -12.25616274	     14.00484143	      3.79621848	     -6.66004335
      3.81000000	    -19.70184036	     -6.56737570	      3.11885069	     -1.69493138	     -0.05185442	     -0.26378454	     45.98422423	     12.42818072	      2.97315205	    -34.67464442	     -0.05055847	    -12.02651855	     13.59508192	     14.94612691	     -6.62284624	      2.14014122	    -53.21649100	    -30.91354665	      5.43675775	    -15.95609073	     14.12880442	      3.99775200	     -6.32676356
      3.81500000	    -19.62421049	     -6.76668605	      3.05623004	     -1.68731922	     -0.05098659	     -0.26329885	     45.21486258	     12.65273479	      2.71369167	    -34.44462859	      0.74314215	    -11.44756561	     14.06610141	     16.07902176	     -6.68851400	      2.33212768	    -54.90813480	    -30.52771852	      3.12673465	    -16.26252207	     14.07681113	      4.16291519	     -6.15598464
      3.82000000	    -19.70529095	     -6.91298051	      2.91186553	     -1.67982842	     -0.05023541	     -0.26279771	     44.59295878	     12.87160898	      2.59481953	    -34.11666664	      1.14126281	    -11.21264676	     15.69125225	     17.41717274	     -6.67067620	      2.50598512	    -56.67744257	    -29.32484288	      1.18164474	    -19.01368955	     14.18336187	      4.29271066	     -5.86108690
      3.82500000	    -19.62302513	     -7.08109237	      2.86067835	     -1.67225191	     -0.04911197	     -0.26240735	     43.74179438	     13.08593424	      2.45307836	    -33.75937365	      1.77675977	    -10.80143283	     15.96187684	     18.53722095	     -6.64438564	      2.79045800	    -58.18087215	    -28.72793765	     -0.91804051	    -19.17446975	     14.13772548	      4.43030875	     -5.66902928
